Coordinates
version=1
nRows=21
nColumns=12
inDegrees=yes

Units are S.I. units (second, meters, Newtons, ...)
Angles are in degrees

endheader
time	SC_y	SC_z	SC_x	AC_y	AC_z	AC_x	GH_y	GH_z	GH_yy	EL_x	PS_y
       0.0              -24.19          22.54          63.06          43.79         -17.36          13.86         -15.05          24.12          74.92          39.83          154.3
  0.002918              -24.19          22.54          63.05          43.79         -17.36          13.86         -15.04          24.11          74.91          39.84          154.3
  0.005836              -24.19          22.53          63.05          43.79         -17.36          13.86         -15.04          24.11          74.89          39.84          154.3
  0.008754               -24.2          22.53          63.04          43.79         -17.36          13.86         -15.04          24.11          74.87          39.85          154.3
   0.01167               -24.2          22.53          63.04          43.79         -17.36          13.86         -15.03           24.1          74.85          39.86          154.3
   0.01459              -24.21          22.53          63.03           43.8         -17.35          13.87         -15.03           24.1          74.83          39.87          154.3
   0.01751              -24.21          22.53          63.02           43.8         -17.35          13.87         -15.02          24.09          74.81          39.87          154.3
   0.02043              -24.21          22.52          63.02           43.8         -17.35          13.87         -15.02          24.09          74.78          39.88          154.3
   0.02334              -24.22          22.52          63.01           43.8         -17.35          13.87         -15.01          24.09          74.75          39.89          154.3
   0.02626              -24.23          22.52           63.0           43.8         -17.35          13.87         -15.01          24.08          74.73          39.91          154.2
   0.02918              -24.23          22.51          62.99          43.81         -17.35          13.87          -15.0          24.07           74.7          39.92          154.2
    0.0321              -24.24          22.51          62.99          43.81         -17.35          13.87          -15.0          24.07          74.66          39.93          154.2
   0.03502              -24.24          22.51          62.98          43.81         -17.35          13.88         -14.99          24.06          74.63          39.94          154.2
   0.03793              -24.25           22.5          62.97          43.81         -17.34          13.88         -14.98          24.06          74.59          39.96          154.2
   0.04085              -24.26           22.5          62.96          43.82         -17.34          13.88         -14.97          24.05          74.55          39.97          154.2
   0.04377              -24.27          22.49          62.94          43.82         -17.34          13.88         -14.97          24.04           74.5          39.99          154.2
   0.04669              -24.28          22.49          62.93          43.82         -17.34          13.89         -14.96          24.03          74.45          40.01          154.1
   0.04961              -24.29          22.48          62.92          43.83         -17.34          13.89         -14.95          24.02           74.4          40.03          154.1
   0.05252               -24.3          22.48           62.9          43.83         -17.33          13.89         -14.94          24.01          74.34          40.05          154.1
   0.05544              -24.31          22.47          62.88          43.84         -17.33          13.89         -14.92           24.0          74.28          40.08          154.1
   0.05836              -24.32          22.46          62.86          43.84         -17.33           13.9         -14.91          23.99          74.21           40.1          154.0
